<svg width="492" height="865" viewBox="0 0 492 865" fill="none" xmlns="http://www.w3.org/2000/svg">
<path d="M374.933 623.288H367.948V745.137H374.933V623.288Z" fill="#A0204C"/>
<path d="M387.919 623.287H381.18V745.136H387.919V623.287Z" fill="#A0204C"/>
<path d="M400.905 623.287H394.412V745.136H400.905V623.287Z" fill="#9D3F5E"/>
<path d="M413.873 623.287H407.644V745.136H413.873V623.287Z" fill="#A7536F"/>
<path d="M426.859 623.287H420.876V745.136H426.859V623.287Z" fill="#B16881"/>
<path d="M439.845 623.287H434.109V745.136H439.845V623.287Z" fill="#BF7B92"/>
<path d="M452.813 623.287H447.323V745.136H452.813V623.287Z" fill="#8F889B"/>
<path d="M465.799 623.287H460.555V745.136H465.799V623.287Z" fill="#787D9C"/>
<path d="M478.785 623.287H473.787V745.136H478.785V623.287Z" fill="#5F6483"/>
<path d="M491.771 623.287H487.02V745.136H491.771V623.287Z" fill="#282D50"/>
<path d="M491.753 744.704H244.336V865.792H491.753V744.704Z" fill="#A0204C"/>
<path d="M366.874 865.653L243.807 744.669L244.335 865.792" fill="#282D4D"/>
<path d="M483.941 804.642C483.941 774.975 459.464 750.914 429.287 750.914C399.11 750.914 374.634 774.975 374.634 804.642C374.634 834.308 399.11 858.37 429.287 858.37C459.464 858.37 483.941 834.326 483.941 804.642ZM389.01 804.642C389.01 782.777 407.046 765.046 429.287 765.046C451.529 765.046 469.565 782.777 469.565 804.642C469.565 826.507 451.529 844.238 429.287 844.238C407.046 844.255 389.01 826.524 389.01 804.642Z" fill="#7E8195"/>
<path d="M469.582 804.642C469.582 782.777 451.546 765.047 429.305 765.047C407.064 765.047 389.028 782.777 389.028 804.642C389.028 826.507 407.064 844.238 429.305 844.238C451.546 844.255 469.582 826.524 469.582 804.642ZM402.453 804.642C402.453 790.077 414.472 778.262 429.287 778.262C444.103 778.262 456.121 790.077 456.121 804.642C456.121 819.207 444.103 831.022 429.287 831.022C414.472 831.039 402.453 819.225 402.453 804.642Z" fill="white"/>
<path d="M367.595 738.669C361.947 738.807 361.842 734.085 356.193 734.206C350.545 734.344 350.668 739.049 345.02 739.188C339.371 739.326 339.266 734.604 333.635 734.725C327.987 734.863 328.11 739.568 322.462 739.707C316.813 739.845 316.708 735.123 311.059 735.244C305.411 735.382 305.534 740.087 299.886 740.226C294.238 740.364 294.132 735.641 288.484 735.763C282.835 735.901 282.959 740.606 277.31 740.744C271.662 740.883 271.556 736.161 265.908 736.282C260.26 736.42 260.365 741.125 254.717 741.263C249.069 741.402 248.945 736.679 243.297 736.801" stroke="white" stroke-width="1.925" stroke-miterlimit="10"/>
<path d="M367.595 723.1C361.947 723.239 361.842 718.516 356.193 718.637C350.545 718.776 350.668 723.481 345.02 723.619C339.371 723.758 339.266 719.035 333.635 719.156C327.987 719.295 328.11 724 322.462 724.138C316.813 724.277 316.708 719.554 311.059 719.675C305.411 719.814 305.534 724.519 299.886 724.657C294.238 724.796 294.132 720.073 288.484 720.194C282.835 720.333 282.959 725.038 277.31 725.176C271.662 725.315 271.556 720.592 265.908 720.713C260.26 720.852 260.365 725.557 254.717 725.695C249.069 725.834 248.945 721.111 243.297 721.232" stroke="white" stroke-width="1.925" stroke-miterlimit="10"/>
<path d="M367.595 707.532C361.947 707.67 361.842 702.948 356.193 703.069C350.545 703.207 350.668 707.912 345.02 708.051C339.371 708.189 339.266 703.467 333.635 703.588C327.987 703.726 328.11 708.431 322.462 708.57C316.813 708.708 316.708 703.986 311.059 704.107C305.411 704.245 305.534 708.95 299.886 709.089C294.238 709.227 294.132 704.505 288.484 704.626C282.835 704.764 282.959 709.469 277.31 709.608C271.662 709.746 271.556 705.024 265.908 705.145C260.26 705.283 260.365 709.988 254.717 710.127C249.069 710.265 248.945 705.543 243.297 705.664" stroke="white" stroke-width="1.925" stroke-miterlimit="10"/>
<path d="M367.595 691.963C361.947 692.102 361.842 687.379 356.193 687.501C350.545 687.639 350.668 692.344 345.02 692.482C339.371 692.621 339.266 687.898 333.635 688.019C327.987 688.158 328.11 692.863 322.462 693.001C316.813 693.14 316.708 688.417 311.059 688.538C305.411 688.677 305.534 693.382 299.886 693.52C294.238 693.659 294.132 688.936 288.484 689.057C282.835 689.196 282.959 693.901 277.31 694.039C271.662 694.178 271.556 689.455 265.908 689.576C260.26 689.715 260.365 694.42 254.717 694.558C249.069 694.679 248.945 689.974 243.297 690.095" stroke="white" stroke-width="1.925" stroke-miterlimit="10"/>
<path d="M367.595 676.395C361.947 676.533 361.842 671.811 356.193 671.932C350.545 672.07 350.668 676.776 345.02 676.914C339.371 677.052 339.266 672.33 333.635 672.451C327.987 672.589 328.11 677.295 322.462 677.433C316.813 677.571 316.708 672.849 311.059 672.97C305.411 673.108 305.534 677.813 299.886 677.952C294.238 678.09 294.132 673.368 288.484 673.489C282.835 673.627 282.959 678.332 277.31 678.471C271.662 678.609 271.556 673.887 265.908 674.008C260.26 674.146 260.365 678.851 254.717 678.99C249.069 679.128 248.945 674.406 243.297 674.527" stroke="white" stroke-width="1.925" stroke-miterlimit="10"/>
<path d="M367.595 660.827C361.947 660.965 361.842 656.243 356.193 656.364C350.545 656.502 350.668 661.207 345.02 661.346C339.371 661.484 339.266 656.762 333.635 656.883C327.987 657.021 328.11 661.726 322.462 661.865C316.813 662.003 316.708 657.28 311.059 657.402C305.411 657.54 305.534 662.245 299.886 662.383C294.238 662.522 294.132 657.8 288.484 657.921C282.835 658.059 282.959 662.764 277.31 662.903C271.662 663.041 271.556 658.318 265.908 658.457C260.26 658.578 260.365 663.3 254.717 663.439C249.069 663.577 248.945 658.855 243.297 658.976" stroke="white" stroke-width="1.925" stroke-miterlimit="10"/>
<path d="M367.595 645.258C361.947 645.397 361.842 640.674 356.193 640.795C350.545 640.934 350.668 645.639 345.02 645.777C339.371 645.916 339.266 641.193 333.635 641.314C327.987 641.453 328.11 646.158 322.462 646.296C316.813 646.435 316.708 641.712 311.059 641.833C305.411 641.972 305.534 646.677 299.886 646.815C294.238 646.954 294.132 642.231 288.484 642.352C282.835 642.491 282.959 647.196 277.31 647.334C271.662 647.472 271.556 642.75 265.908 642.871C260.26 643.009 260.365 647.715 254.717 647.853C249.069 647.991 248.945 643.269 243.297 643.39" stroke="white" stroke-width="1.925" stroke-miterlimit="10"/>
<path d="M367.595 629.69C361.947 629.828 361.842 625.106 356.193 625.227C350.545 625.365 350.668 630.07 345.02 630.209C339.371 630.347 339.266 625.625 333.635 625.746C327.987 625.884 328.11 630.589 322.462 630.728C316.813 630.866 316.708 626.144 311.059 626.265C305.411 626.403 305.534 631.108 299.886 631.247C294.238 631.385 294.132 626.662 288.484 626.784C282.835 626.922 282.959 631.627 277.31 631.765C271.662 631.904 271.556 627.181 265.908 627.303C260.26 627.441 260.365 632.146 254.717 632.284C249.069 632.423 248.945 627.7 243.297 627.822" stroke="white" stroke-width="1.925" stroke-miterlimit="10"/>
<path d="M66.5184 556.014H0V622.699H66.5184V556.014Z" fill="#655875"/>
<path d="M0 556.014V622.699H66.5184L0 556.014Z" fill="#282D4F"/>
<path d="M0 556.014H66.5184V489.347L0 556.014Z" fill="#282D4F"/>
<path opacity="0.2" d="M246.024 357.966C347.735 357.966 430.187 277.956 430.187 179.258C430.187 80.5603 347.735 0.549866 246.024 0.549866C144.313 0.549866 61.8597 80.5603 61.8597 179.258C61.8597 277.956 144.313 357.966 246.024 357.966Z" fill="#932D4C"/>
<path opacity="0.4" d="M246.024 313.216C322.262 313.216 384.065 253.241 384.065 179.258C384.065 105.276 322.262 45.3007 246.024 45.3007C169.786 45.3007 107.983 105.276 107.983 179.258C107.983 253.241 169.786 313.216 246.024 313.216Z" fill="#9D3F5E"/>
<path opacity="0.6" d="M246.024 274.191C300.057 274.191 343.86 231.688 343.86 179.258C343.86 126.828 300.057 84.3256 246.024 84.3256C191.99 84.3256 148.187 126.828 148.187 179.258C148.187 231.688 191.99 274.191 246.024 274.191Z" fill="#932D4C"/>
<path d="M292.526 148.035H199.141V245.026H292.526V148.035Z" fill="#95D6DF"/>
<path d="M292.906 245.026H246.024H199.142L183.491 621.678H246.024H308.556L292.906 245.026Z" fill="#23103A"/>
<path d="M309.764 226.69H182.3V245.026H309.764V226.69Z" fill="#282D4F"/>
<path d="M309.764 129.681H182.3V148.017H309.764V129.681Z" fill="#282D4F"/>
<path d="M268.455 84.429H223.212C209.926 84.429 199.141 95.2231 199.141 108.56V129.698H292.526V108.56C292.526 95.2231 281.759 84.429 268.455 84.429Z" fill="#23103A"/>
<path d="M248.457 184.984H243.608V226.69H248.457V184.984Z" fill="#282D4F"/>
<path d="M246.023 192.353C253.237 192.353 259.085 186.49 259.085 179.258C259.085 172.026 253.237 166.163 246.023 166.163C238.809 166.163 232.961 172.026 232.961 179.258C232.961 186.49 238.809 192.353 246.023 192.353Z" fill="#655875"/>
<path d="M300.533 428.612L195.88 323.699L199.141 245.026H228.096L295.718 312.801L300.533 428.612Z" fill="#655875"/>
<path d="M308.556 621.678H271.82L187.011 536.657L191.446 430.117L305.347 544.303L308.556 621.678Z" fill="#655875"/>
<path opacity="0.15" d="M291.612 148.052V226.725H308.832V245.026H291.991L296.391 350.943C280.102 355.51 262.899 357.966 245.109 357.966C227.319 357.966 210.098 355.51 193.827 350.943L198.227 245.061H181.369V226.638H198.227V147.983H181.334V129.768H198.244C198.244 129.768 198.244 118.195 198.244 109.702C198.244 101.208 200.729 97.7834 202.161 95.2751C208.149 84.6367 222.039 84.4291 222.039 84.4291C222.039 84.4291 260.432 84.4291 269.387 84.4291C278.342 84.4291 284.658 91.7809 285.935 93.0609C291.767 99.0634 291.612 107.557 291.612 107.557V129.681H308.832V148.052H291.612Z" fill="#932D4C"/>
<path d="M399.059 489.503H332.558V556.17H399.059V489.503Z" fill="#655875"/>
<path d="M399.076 556.17H332.558V489.503L399.076 556.17Z" fill="#282D4F"/>
<path d="M399.059 556.326H332.558V622.993H399.059V556.326Z" fill="#655875"/>
<path d="M399.076 623.01H332.558L399.076 556.326V623.01Z" fill="#282D4F"/>
<path d="M399.076 489.502H332.558V422.818L399.076 489.502Z" fill="#282D4F"/>
<path d="M157.66 489.503H91.1589V556.17H157.66V489.503Z" fill="#655875"/>
<path d="M157.66 556.17H91.1589V489.503L157.66 556.17Z" fill="#282D4F"/>
<path d="M157.66 556.326H91.1589V622.993H157.66V556.326Z" fill="#655875"/>
<path d="M157.66 623.01H91.1589L157.66 556.326V623.01Z" fill="#282D4F"/>
<path d="M157.66 489.502H91.1589L157.66 422.818V489.502Z" fill="#282D4F"/>
<path d="M490.998 556.014H424.479V622.699H490.998V556.014Z" fill="#655875"/>
<path d="M490.998 556.014V622.699H424.479L490.998 556.014Z" fill="#282D4F"/>
<path d="M490.998 556.014H424.479V489.347L490.998 556.014Z" fill="#282D4F"/>
<path opacity="0.15" d="M291.801 146.322V224.995H309.022V243.296H292.181L294.631 302.664C279.309 308.373 262.675 311.486 245.299 311.486C227.906 311.486 211.272 308.373 195.949 302.664L198.417 243.331H181.524V224.908H198.417V146.305H181.576V127.952H198.468C198.468 127.952 198.468 115.203 198.468 106.588C198.468 97.9738 203.041 92.5941 203.835 91.5562C211.582 82.2151 222.367 82.613 222.367 82.613C222.367 82.613 256.377 82.613 267.575 82.613C278.791 82.613 285.055 89.9301 286.09 91.314C292.405 98.2679 291.801 107.453 291.801 107.453V127.9H309.022V146.322H291.801Z" fill="#932D4C"/>
<path opacity="0.15" d="M291.801 145.863L291.75 224.535H308.97V242.768H292.129L292.819 260.031C278.739 267.66 262.519 272.002 245.247 272.002C227.957 272.002 211.72 267.66 197.64 260.031L198.365 242.837H181.558V224.449H198.365V145.845H181.558V127.578H198.382C198.382 127.578 198.382 117.58 198.382 107.512C198.382 97.4795 202.903 92.2208 203.817 91.0618C203.835 91.0618 203.835 91.0445 203.835 91.0445C211.858 81.8937 221.383 82.2743 221.383 82.2743H224.869C224.869 82.2743 231.788 82.2743 240.208 82.2743H266.523C277.307 82.2743 282 87.0141 283.571 88.2768C284.571 89.0726 285.434 89.9547 286.211 90.8543C291.819 97.5314 291.75 106.336 291.75 106.336V127.44H308.97V145.863H291.801Z" fill="#932D4C"/>
<path d="M116.275 699.399C116.275 665.962 143.47 638.855 177.016 638.855C210.562 638.855 237.757 665.962 237.757 699.399C237.757 732.837 210.562 759.943 177.016 759.943C143.47 759.943 116.275 732.837 116.275 699.399ZM221.79 699.399C221.79 674.749 201.746 654.77 177.016 654.77C152.286 654.77 132.241 674.749 132.241 699.399C132.241 724.049 152.286 744.029 177.016 744.029C201.746 744.029 221.79 724.049 221.79 699.399Z" fill="#7E8195"/>
<path d="M131.894 699.053C131.894 674.403 151.939 654.424 176.669 654.424C201.399 654.424 221.443 674.403 221.443 699.053C221.443 723.703 201.399 743.683 176.669 743.683C151.939 743.683 131.894 723.703 131.894 699.053ZM206.484 699.053C206.484 682.637 193.121 669.318 176.651 669.318C160.182 669.318 146.819 682.637 146.819 699.053C146.819 715.469 160.182 728.789 176.651 728.789C193.121 728.789 206.484 715.469 206.484 699.053Z" fill="white"/>
<path d="M244.698 857.431V865.463H0L0.1573 623.287H37.334C75.5943 623.287 106.618 658.794 106.618 702.613L106.391 728.712C106.147 755.909 125.338 778.105 149.091 778.105H175.414C213.674 778.105 244.698 813.613 244.698 857.431Z" fill="#282D4D"/>
<path d="M39.9152 827.406C39.9152 834.724 45.8678 840.657 53.2088 840.657C60.5497 840.657 66.5023 834.724 66.5023 827.406C66.5023 834.724 72.4548 840.657 79.7958 840.657C87.1367 840.657 93.0894 834.724 93.0894 827.406C93.0894 834.724 99.0419 840.657 106.383 840.657C113.724 840.657 119.676 834.724 119.676 827.406C119.676 834.724 125.629 840.657 132.97 840.657C140.311 840.657 146.263 834.724 146.263 827.406" stroke="white" stroke-opacity="0.7" stroke-width="2" stroke-miterlimit="10"/>
<path d="M13.8837 782.431C13.8837 789.748 19.8363 795.682 27.1773 795.682C34.5182 795.682 40.4709 789.748 40.4709 782.431C40.4709 789.748 46.4235 795.682 53.7644 795.682C61.1054 795.682 67.0578 789.748 67.0578 782.431C67.0578 789.748 73.0105 795.682 80.3514 795.682C87.6924 795.682 93.645 789.748 93.645 782.431C93.645 789.748 99.5977 795.682 106.939 795.682C114.28 795.682 120.232 789.748 120.232 782.431" stroke="white" stroke-opacity="0.7" stroke-width="2" stroke-miterlimit="10"/>
</svg>
