<svg width="1991" height="386" viewBox="0 0 1991 386" fill="none" xmlns="http://www.w3.org/2000/svg">
<path d="M190.144 28.97C190.495 29.1104 190.845 29.2649 191.195 29.4194C206.565 35.768 219.062 47.7068 226.11 62.7215C226.656 63.8873 227.174 65.0671 227.651 66.275C230.747 73.972 232.442 82.3713 232.442 91.1778C232.442 93.8184 232.288 96.4169 231.994 98.9732H45.037C46.7463 90.7284 50.5292 83.2561 55.7971 77.1042C59.5099 72.7781 63.9653 69.0982 68.9671 66.2891C74.6134 63.1007 80.9461 61.022 87.6992 60.3057C89.4085 60.1231 91.1318 60.0247 92.8831 60.0247C93.2193 60.0247 93.5556 60.0388 93.8919 60.0388C98.081 60.1231 102.144 60.727 105.997 61.8226C109.416 54.8419 114.011 48.5495 119.517 43.2122C126.046 36.8776 133.864 31.8634 142.551 28.6188C145.311 27.5795 148.155 26.7367 151.083 26.0766C155.833 24.9951 160.764 24.4192 165.836 24.4192C174.411 24.3911 182.607 26.0204 190.144 28.97Z" fill="url(#paint0_linear_1_340)"/>
<path d="M385.059 321.343C385.325 321.441 385.578 321.567 385.844 321.666C397.22 326.371 406.467 335.206 411.693 346.316C412.1 347.172 412.478 348.057 412.828 348.942C415.112 354.631 416.373 360.867 416.373 367.384C416.373 369.336 416.261 371.275 416.037 373.157H277.612C278.873 367.061 281.675 361.513 285.584 356.962C288.33 353.76 291.637 351.035 295.336 348.956C299.511 346.597 304.204 345.052 309.206 344.532C310.467 344.391 311.742 344.321 313.045 344.321C313.297 344.321 313.549 344.321 313.802 344.335C316.898 344.391 319.91 344.855 322.768 345.655C325.29 340.487 328.695 335.838 332.772 331.877C337.606 327.186 343.392 323.477 349.823 321.076C351.868 320.317 353.97 319.685 356.141 319.194C359.658 318.393 363.315 317.972 367.07 317.972C373.417 317.958 379.483 319.165 385.059 321.343Z" fill="url(#paint1_linear_1_340)"/>
<path d="M107.65 223.024C107.916 223.122 108.169 223.249 108.435 223.347C119.811 228.052 129.058 236.887 134.284 247.997C134.691 248.854 135.069 249.739 135.419 250.623C137.703 256.312 138.964 262.548 138.964 269.065C138.964 271.018 138.852 272.956 138.628 274.838H0.203247C1.4642 268.742 4.26631 263.194 8.17526 258.643C10.9213 255.441 14.2278 252.716 17.9266 250.637C22.1018 248.278 26.7953 246.733 31.7971 246.213C33.058 246.073 34.333 246.002 35.636 246.002C35.8882 246.002 36.1403 246.002 36.3925 246.016C39.4889 246.073 42.5011 246.536 45.3593 247.337C47.8812 242.168 51.2858 237.519 55.3628 233.558C60.1965 228.867 65.9828 225.159 72.4137 222.757C74.4592 221.999 76.5608 221.366 78.7324 220.875C82.2491 220.074 85.9058 219.653 89.6607 219.653C95.9934 219.625 102.074 220.833 107.65 223.024Z" fill="url(#paint2_linear_1_340)"/>
<path d="M257.115 141.784C258.09 141.784 258.88 140.991 258.88 140.014C258.88 139.037 258.09 138.244 257.115 138.244C256.14 138.244 255.349 139.037 255.349 140.014C255.349 140.991 256.14 141.784 257.115 141.784Z" fill="white"/>
<path d="M45.5554 4.13702C46.5304 4.13702 47.3208 3.34468 47.3208 2.36728C47.3208 1.38988 46.5304 0.597534 45.5554 0.597534C44.5805 0.597534 43.7901 1.38988 43.7901 2.36728C43.7901 3.34468 44.5805 4.13702 45.5554 4.13702Z" fill="white"/>
<path d="M371.847 43.4084C372.822 43.4084 373.613 42.616 373.613 41.6386C373.613 40.6612 372.822 39.8689 371.847 39.8689C370.872 39.8689 370.082 40.6612 370.082 41.6386C370.082 42.616 370.872 43.4084 371.847 43.4084Z" fill="white"/>
<path d="M76.939 337.27C79.0979 337.27 80.848 335.516 80.848 333.351C80.848 331.187 79.0979 329.433 76.939 329.433C74.7802 329.433 73.0301 331.187 73.0301 333.351C73.0301 335.516 74.7802 337.27 76.939 337.27Z" fill="white"/>
<path d="M1296.35 41.3724C1296.7 41.5128 1297.05 41.6673 1297.41 41.8218C1312.77 48.1704 1325.27 60.1092 1332.32 75.1239C1332.87 76.2897 1333.38 77.4695 1333.86 78.6774C1336.96 86.3744 1338.65 94.7737 1338.65 103.58C1338.65 106.221 1338.5 108.819 1338.2 111.376H1151.25C1152.96 103.131 1156.74 95.6585 1162.01 89.5066C1165.72 85.1805 1170.18 81.5006 1175.18 78.6915C1180.82 75.5031 1187.16 73.4244 1193.91 72.7081C1195.62 72.5255 1197.34 72.4271 1199.09 72.4271C1199.43 72.4271 1199.77 72.4412 1200.1 72.4412C1204.29 72.5255 1208.35 73.1294 1212.21 74.225C1215.63 67.2443 1220.22 60.9519 1225.73 55.6146C1232.26 49.28 1240.07 44.2658 1248.76 41.0212C1251.52 39.9819 1254.36 39.1391 1257.29 38.479C1262.04 37.3975 1266.97 36.8216 1272.05 36.8216C1280.62 36.7935 1288.82 38.4228 1296.35 41.3724Z" fill="url(#paint3_linear_1_340)"/>
<path d="M1491.27 333.745C1491.54 333.843 1491.79 333.97 1492.05 334.068C1503.43 338.773 1512.68 347.608 1517.9 358.718C1518.31 359.575 1518.69 360.46 1519.04 361.345C1521.32 367.033 1522.58 373.269 1522.58 379.786C1522.58 381.739 1522.47 383.677 1522.25 385.559H1383.82C1385.08 379.463 1387.89 373.915 1391.79 369.365C1394.54 366.162 1397.85 363.437 1401.55 361.359C1405.72 358.999 1410.41 357.454 1415.42 356.934C1416.68 356.794 1417.95 356.724 1419.25 356.724C1419.51 356.724 1419.76 356.724 1420.01 356.738C1423.11 356.794 1426.12 357.257 1428.98 358.058C1431.5 352.889 1434.9 348.24 1438.98 344.279C1443.82 339.588 1449.6 335.88 1456.03 333.478C1458.08 332.72 1460.18 332.088 1462.35 331.596C1465.87 330.795 1469.52 330.374 1473.28 330.374C1479.63 330.36 1485.69 331.568 1491.27 333.745Z" fill="url(#paint4_linear_1_340)"/>
<path d="M1363.32 154.186C1364.3 154.186 1365.09 153.394 1365.09 152.416C1365.09 151.439 1364.3 150.647 1363.32 150.647C1362.35 150.647 1361.56 151.439 1361.56 152.416C1361.56 153.394 1362.35 154.186 1363.32 154.186Z" fill="white"/>
<path d="M1151.77 16.5395C1152.74 16.5395 1153.53 15.7471 1153.53 14.7697C1153.53 13.7923 1152.74 13 1151.77 13C1150.79 13 1150 13.7923 1150 14.7697C1150 15.7471 1150.79 16.5395 1151.77 16.5395Z" fill="white"/>
<path d="M1478.06 55.8109C1479.03 55.8109 1479.82 55.0185 1479.82 54.0411C1479.82 53.0637 1479.03 52.2714 1478.06 52.2714C1477.08 52.2714 1476.29 53.0637 1476.29 54.0411C1476.29 55.0185 1477.08 55.8109 1478.06 55.8109Z" fill="white"/>
<path d="M1706.77 16.5395C1707.74 16.5395 1708.53 15.7472 1708.53 14.7697C1708.53 13.7923 1707.74 13 1706.77 13C1705.79 13 1705 13.7923 1705 14.7697C1705 15.7472 1705.79 16.5395 1706.77 16.5395Z" fill="white"/>
<path d="M1183.15 349.672C1185.31 349.672 1187.06 347.918 1187.06 345.754C1187.06 343.59 1185.31 341.835 1183.15 341.835C1180.99 341.835 1179.24 343.59 1179.24 345.754C1179.24 347.918 1180.99 349.672 1183.15 349.672Z" fill="white"/>
<path d="M80.904 177.263L77.009 181.167L38.8443 142.921L42.7533 139.003L80.904 177.263Z" fill="url(#paint5_linear_1_340)"/>
<path d="M40.7918 143.722C42.3161 143.722 43.5518 142.483 43.5518 140.955C43.5518 139.427 42.3161 138.188 40.7918 138.188C39.2674 138.188 38.0317 139.427 38.0317 140.955C38.0317 142.483 39.2674 143.722 40.7918 143.722Z" fill="white"/>
<path d="M483.61 254.865L479.701 258.769L364.184 142.964L368.079 139.045L483.61 254.865Z" fill="url(#paint6_linear_1_340)"/>
<path d="M366.131 143.764C367.655 143.764 368.891 142.525 368.891 140.997C368.891 139.469 367.655 138.23 366.131 138.23C364.607 138.23 363.371 139.469 363.371 140.997C363.371 142.525 364.607 143.764 366.131 143.764Z" fill="white"/>
<path d="M784.941 28.5512C785.291 28.6916 785.642 28.8461 785.992 29.0006C801.361 35.3492 813.859 47.288 820.906 62.3027C821.453 63.4685 821.971 64.6483 822.447 65.8562C825.544 73.5532 827.239 81.9524 827.239 90.759C827.239 93.3996 827.085 95.998 826.791 98.5543H639.834C641.543 90.3096 645.326 82.8373 650.594 76.6854C654.307 72.3593 658.762 68.6794 663.764 65.8702C669.41 62.6819 675.743 60.6032 682.496 59.8868C684.205 59.7043 685.928 59.6059 687.68 59.6059C688.016 59.6059 688.352 59.62 688.689 59.62C692.878 59.7043 696.941 60.3082 700.794 61.4038C704.212 54.4231 708.808 48.1307 714.314 42.7934C720.843 36.4588 728.661 31.4445 737.347 28.2C740.107 27.1606 742.951 26.3179 745.88 25.6578C750.629 24.5763 755.561 24.0004 760.633 24.0004C769.207 23.9723 777.403 25.6016 784.941 28.5512Z" fill="url(#paint7_linear_1_340)"/>
<path d="M979.856 320.924C980.122 321.022 980.374 321.148 980.641 321.247C992.017 325.952 1001.26 334.787 1006.49 345.897C1006.9 346.754 1007.27 347.638 1007.62 348.523C1009.91 354.212 1011.17 360.448 1011.17 366.965C1011.17 368.917 1011.06 370.856 1010.83 372.738H872.409C873.67 366.642 876.472 361.094 880.381 356.543C883.127 353.341 886.434 350.616 890.132 348.537C894.308 346.178 899.001 344.633 904.003 344.113C905.264 343.973 906.539 343.902 907.842 343.902C908.094 343.902 908.346 343.902 908.598 343.916C911.695 343.973 914.707 344.436 917.565 345.237C920.087 340.068 923.492 335.419 927.569 331.458C932.402 326.767 938.189 323.059 944.619 320.657C946.665 319.898 948.767 319.266 950.938 318.775C954.455 317.974 958.112 317.553 961.866 317.553C968.213 317.539 974.28 318.747 979.856 320.924Z" fill="url(#paint8_linear_1_340)"/>
<path d="M702.447 222.605C702.713 222.703 702.965 222.83 703.232 222.928C714.608 227.633 723.855 236.468 729.081 247.578C729.487 248.435 729.866 249.32 730.216 250.205C732.5 255.893 733.761 262.129 733.761 268.646C733.761 270.599 733.649 272.537 733.424 274.419H595C596.261 268.323 599.063 262.775 602.972 258.225C605.718 255.022 609.025 252.297 612.723 250.219C616.899 247.859 621.592 246.314 626.594 245.794C627.855 245.654 629.13 245.584 630.433 245.584C630.685 245.584 630.937 245.584 631.189 245.598C634.286 245.654 637.298 246.117 640.156 246.918C642.678 241.749 646.083 237.1 650.16 233.139C654.993 228.448 660.78 224.74 667.21 222.338C669.256 221.58 671.358 220.948 673.529 220.456C677.046 219.655 680.703 219.234 684.457 219.234C690.79 219.206 696.871 220.414 702.447 222.605Z" fill="url(#paint9_linear_1_340)"/>
<path d="M1885.24 379.408C1886.21 379.408 1887 378.616 1887 377.639C1887 376.661 1886.21 375.869 1885.24 375.869C1884.26 375.869 1883.47 376.661 1883.47 377.639C1883.47 378.616 1884.26 379.408 1885.24 379.408Z" fill="white"/>
<path d="M1647 270.865L1643.09 274.769L1527.57 158.964L1531.47 155.045L1647 270.865Z" fill="url(#paint10_linear_1_340)"/>
<path d="M1529.52 159.764C1531.04 159.764 1532.28 158.525 1532.28 156.997C1532.28 155.469 1531.04 154.23 1529.52 154.23C1527.99 154.23 1526.76 155.469 1526.76 156.997C1526.76 158.525 1527.99 159.764 1529.52 159.764Z" fill="white"/>
<path d="M1948.33 44.5512C1948.68 44.6916 1949.03 44.8461 1949.38 45.0006C1964.75 51.3492 1977.25 63.288 1984.29 78.3027C1984.84 79.4685 1985.36 80.6483 1985.84 81.8562C1988.93 89.5532 1990.63 97.9524 1990.63 106.759C1990.63 109.4 1990.47 111.998 1990.18 114.554H1803.22C1804.93 106.31 1808.71 98.8373 1813.98 92.6854C1817.69 88.3593 1822.15 84.6794 1827.15 81.8702C1832.8 78.6819 1839.13 76.6032 1845.88 75.8868C1847.59 75.7043 1849.32 75.6059 1851.07 75.6059C1851.4 75.6059 1851.74 75.62 1852.08 75.62C1856.27 75.7043 1860.33 76.3082 1864.18 77.4038C1867.6 70.4231 1872.2 64.1307 1877.7 58.7934C1884.23 52.4588 1892.05 47.4445 1900.73 44.2C1903.5 43.1606 1906.34 42.3179 1909.27 41.6578C1914.02 40.5763 1918.95 40.0004 1924.02 40.0004C1932.59 39.9723 1940.79 41.6016 1948.33 44.5512Z" fill="url(#paint11_linear_1_340)"/>
<path d="M1865.83 238.605C1866.1 238.703 1866.35 238.83 1866.62 238.928C1878 243.633 1887.24 252.468 1892.47 263.578C1892.88 264.435 1893.25 265.32 1893.6 266.205C1895.89 271.893 1897.15 278.129 1897.15 284.646C1897.15 286.599 1897.04 288.537 1896.81 290.419H1758.39C1759.65 284.323 1762.45 278.775 1766.36 274.225C1769.11 271.022 1772.41 268.297 1776.11 266.219C1780.29 263.859 1784.98 262.314 1789.98 261.794C1791.24 261.654 1792.52 261.584 1793.82 261.584C1794.07 261.584 1794.32 261.584 1794.58 261.598C1797.67 261.654 1800.69 262.117 1803.54 262.918C1806.07 257.749 1809.47 253.1 1813.55 249.139C1818.38 244.448 1824.17 240.74 1830.6 238.338C1832.64 237.58 1834.75 236.948 1836.92 236.456C1840.43 235.655 1844.09 235.234 1847.85 235.234C1854.18 235.206 1860.26 236.414 1865.83 238.605Z" fill="url(#paint12_linear_1_340)"/>
<path d="M675.701 176.844L671.806 180.749L633.641 142.503L637.55 138.584L675.701 176.844Z" fill="url(#paint13_linear_1_340)"/>
<path d="M635.589 143.303C637.113 143.303 638.349 142.064 638.349 140.536C638.349 139.008 637.113 137.769 635.589 137.769C634.064 137.769 632.828 139.008 632.828 140.536C632.828 142.064 634.064 143.303 635.589 143.303Z" fill="white"/>
<path d="M1078.41 254.446L1074.5 258.351L958.98 142.545L962.875 138.626L1078.41 254.446Z" fill="url(#paint14_linear_1_340)"/>
<path d="M960.928 143.345C962.452 143.345 963.688 142.107 963.688 140.578C963.688 139.05 962.452 137.811 960.928 137.811C959.403 137.811 958.168 139.05 958.168 140.578C958.168 142.107 959.403 143.345 960.928 143.345Z" fill="white"/>
<defs>
<linearGradient id="paint0_linear_1_340" x1="138.751" y1="94.0467" x2="140.042" y2="-51.4755" gradientUnits="userSpaceOnUse">
<stop stop-color="white" stop-opacity="0"/>
<stop offset="1" stop-color="white"/>
</linearGradient>
<linearGradient id="paint1_linear_1_340" x1="347.012" y1="369.524" x2="347.967" y2="261.789" gradientUnits="userSpaceOnUse">
<stop stop-color="white" stop-opacity="0"/>
<stop offset="1" stop-color="white"/>
</linearGradient>
<linearGradient id="paint2_linear_1_340" x1="69.5955" y1="271.202" x2="70.5513" y2="163.467" gradientUnits="userSpaceOnUse">
<stop stop-color="white" stop-opacity="0"/>
<stop offset="1" stop-color="white"/>
</linearGradient>
<linearGradient id="paint3_linear_1_340" x1="1244.96" y1="106.449" x2="1246.25" y2="-39.0731" gradientUnits="userSpaceOnUse">
<stop stop-color="white" stop-opacity="0"/>
<stop offset="1" stop-color="white"/>
</linearGradient>
<linearGradient id="paint4_linear_1_340" x1="1453.22" y1="381.926" x2="1454.18" y2="274.192" gradientUnits="userSpaceOnUse">
<stop stop-color="white" stop-opacity="0"/>
<stop offset="1" stop-color="white"/>
</linearGradient>
<linearGradient id="paint5_linear_1_340" x1="83.7911" y1="184.073" x2="31.2572" y2="131.67" gradientUnits="userSpaceOnUse">
<stop stop-color="#95D6DF" stop-opacity="0"/>
<stop offset="0.2116" stop-color="#99D7E0" stop-opacity="0.2116"/>
<stop offset="0.4024" stop-color="#A4DCE3" stop-opacity="0.4024"/>
<stop offset="0.5852" stop-color="#B6E3E9" stop-opacity="0.5852"/>
<stop offset="0.763" stop-color="#D0EDF1" stop-opacity="0.763"/>
<stop offset="0.9357" stop-color="#F1F9FB" stop-opacity="0.9357"/>
<stop offset="1" stop-color="white"/>
</linearGradient>
<linearGradient id="paint6_linear_1_340" x1="496.363" y1="271.57" x2="337.332" y2="112.935" gradientUnits="userSpaceOnUse">
<stop stop-color="#95D6DF" stop-opacity="0"/>
<stop offset="0.2116" stop-color="#99D7E0" stop-opacity="0.2116"/>
<stop offset="0.4024" stop-color="#A4DCE3" stop-opacity="0.4024"/>
<stop offset="0.5852" stop-color="#B6E3E9" stop-opacity="0.5852"/>
<stop offset="0.763" stop-color="#D0EDF1" stop-opacity="0.763"/>
<stop offset="0.9357" stop-color="#F1F9FB" stop-opacity="0.9357"/>
<stop offset="1" stop-color="white"/>
</linearGradient>
<linearGradient id="paint7_linear_1_340" x1="733.548" y1="93.6278" x2="734.839" y2="-51.8944" gradientUnits="userSpaceOnUse">
<stop stop-color="white" stop-opacity="0"/>
<stop offset="1" stop-color="white"/>
</linearGradient>
<linearGradient id="paint8_linear_1_340" x1="941.808" y1="369.105" x2="942.764" y2="261.37" gradientUnits="userSpaceOnUse">
<stop stop-color="white" stop-opacity="0"/>
<stop offset="1" stop-color="white"/>
</linearGradient>
<linearGradient id="paint9_linear_1_340" x1="664.392" y1="270.783" x2="665.348" y2="163.049" gradientUnits="userSpaceOnUse">
<stop stop-color="white" stop-opacity="0"/>
<stop offset="1" stop-color="white"/>
</linearGradient>
<linearGradient id="paint10_linear_1_340" x1="1659.75" y1="287.57" x2="1500.72" y2="128.935" gradientUnits="userSpaceOnUse">
<stop stop-color="#95D6DF" stop-opacity="0"/>
<stop offset="0.2116" stop-color="#99D7E0" stop-opacity="0.2116"/>
<stop offset="0.4024" stop-color="#A4DCE3" stop-opacity="0.4024"/>
<stop offset="0.5852" stop-color="#B6E3E9" stop-opacity="0.5852"/>
<stop offset="0.763" stop-color="#D0EDF1" stop-opacity="0.763"/>
<stop offset="0.9357" stop-color="#F1F9FB" stop-opacity="0.9357"/>
<stop offset="1" stop-color="white"/>
</linearGradient>
<linearGradient id="paint11_linear_1_340" x1="1896.94" y1="109.628" x2="1898.23" y2="-35.8944" gradientUnits="userSpaceOnUse">
<stop stop-color="white" stop-opacity="0"/>
<stop offset="1" stop-color="white"/>
</linearGradient>
<linearGradient id="paint12_linear_1_340" x1="1827.78" y1="286.783" x2="1828.74" y2="179.049" gradientUnits="userSpaceOnUse">
<stop stop-color="white" stop-opacity="0"/>
<stop offset="1" stop-color="white"/>
</linearGradient>
<linearGradient id="paint13_linear_1_340" x1="678.588" y1="183.654" x2="626.054" y2="131.251" gradientUnits="userSpaceOnUse">
<stop stop-color="#95D6DF" stop-opacity="0"/>
<stop offset="0.2116" stop-color="#99D7E0" stop-opacity="0.2116"/>
<stop offset="0.4024" stop-color="#A4DCE3" stop-opacity="0.4024"/>
<stop offset="0.5852" stop-color="#B6E3E9" stop-opacity="0.5852"/>
<stop offset="0.763" stop-color="#D0EDF1" stop-opacity="0.763"/>
<stop offset="0.9357" stop-color="#F1F9FB" stop-opacity="0.9357"/>
<stop offset="1" stop-color="white"/>
</linearGradient>
<linearGradient id="paint14_linear_1_340" x1="1091.16" y1="271.151" x2="932.128" y2="112.516" gradientUnits="userSpaceOnUse">
<stop stop-color="#95D6DF" stop-opacity="0"/>
<stop offset="0.2116" stop-color="#99D7E0" stop-opacity="0.2116"/>
<stop offset="0.4024" stop-color="#A4DCE3" stop-opacity="0.4024"/>
<stop offset="0.5852" stop-color="#B6E3E9" stop-opacity="0.5852"/>
<stop offset="0.763" stop-color="#D0EDF1" stop-opacity="0.763"/>
<stop offset="0.9357" stop-color="#F1F9FB" stop-opacity="0.9357"/>
<stop offset="1" stop-color="white"/>
</linearGradient>
</defs>
</svg>
